<?xml version="1.0" encoding="utf-8"?>
<!-- Generator: Adobe Adobe Illustrator 24.2.0, SVG Export Plug-In . SVG Version: 6.00 Build 0)  -->
<svg version="1.1" id="XMLID_1_" xmlns="http://www.w3.org/2000/svg" xmlns:xlink="http://www.w3.org/1999/xlink" x="0px" y="0px"
	 width="3000px" height="2000px" viewBox="0 0 3000 2000" style="enable-background:new 0 0 3000 2000;" xml:space="preserve">
<style type="text/css">
	.st0{fill:#302D98;}
	.st1{fill:url(#SVGID_1_);}
	.st2{fill:url(#SVGID_2_);}
	.st3{fill:url(#SVGID_3_);}
	.st4{fill:url(#SVGID_4_);}
	.st5{fill:#F1F2F2;}
	.st6{fill:#B6C6DD;}
	.st7{fill:url(#SVGID_5_);}
	.st8{fill:#FFFFFF;}
	.st9{fill:url(#SVGID_6_);}
	.st10{fill:#9C5FD4;}
	.st11{opacity:0.31;fill:url(#SVGID_7_);}
	.st12{fill:url(#SVGID_8_);}
	.st13{fill:url(#SVGID_9_);}
	.st14{opacity:0.3;fill:url(#SVGID_10_);}
	.st15{fill:url(#SVGID_11_);}
	.st16{fill:url(#SVGID_12_);}
	.st17{fill:url(#SVGID_13_);}
	.st18{fill:url(#SVGID_14_);}
	.st19{fill:url(#SVGID_15_);}
	.st20{fill:url(#SVGID_16_);}
	.st21{fill:url(#SVGID_17_);}
	.st22{fill:url(#SVGID_18_);}
	.st23{fill:url(#SVGID_19_);}
	.st24{fill:#232375;}
</style>
<g>
	<rect class="st0" width="3000" height="2000"/>
	<g>
		<linearGradient id="SVGID_1_" gradientUnits="userSpaceOnUse" x1="1542.459" y1="1761.1425" x2="1475.1079" y2="332.0111">
			<stop  offset="0" style="stop-color:#EB84C9"/>
			<stop  offset="1" style="stop-color:#5C4CE2"/>
		</linearGradient>
		<rect x="1168.33" y="589.24" class="st1" width="682.63" height="951.04"/>
		<g>
			
				<linearGradient id="SVGID_2_" gradientUnits="userSpaceOnUse" x1="1899.4958" y1="1437.8456" x2="2000.7024" y2="1437.8456" gradientTransform="matrix(1 -7.000000e-04 7.000000e-04 1 -2.1188 -0.2972)">
				<stop  offset="0" style="stop-color:#F6A472"/>
				<stop  offset="1" style="stop-color:#FBD453"/>
			</linearGradient>
			<path class="st2" d="M1948.98,1486.78c-27.88,0-50.57-22.68-50.6-50.56c-0.01-27.9,22.67-50.61,50.57-50.63c0.01,0,0.03,0,0.03,0
				c27.88,0,50.58,22.68,50.6,50.56v0c0,13.52-5.25,26.23-14.8,35.79c-9.55,9.56-22.25,14.84-35.77,14.84
				C1949.01,1486.78,1949,1486.78,1948.98,1486.78z M1948.99,1407.9c0,0-0.01,0-0.02,0c-15.6,0.01-28.28,12.71-28.27,28.31
				c0.01,15.59,12.7,28.27,28.29,28.27c0,0,0.01,0,0.02,0c7.56,0,14.66-2.95,20-8.3c5.34-5.35,8.28-12.45,8.27-20.01l0,0
				C1977.26,1420.58,1964.57,1407.9,1948.99,1407.9z"/>
		</g>
		
			<linearGradient id="SVGID_3_" gradientUnits="userSpaceOnUse" x1="-1786.556" y1="1437.0546" x2="-1708.5898" y2="1437.0546" gradientTransform="matrix(-0.8556 0.5177 0.5177 0.8556 -1190.6259 1229.9863)">
			<stop  offset="0" style="stop-color:#F6A472"/>
			<stop  offset="1" style="stop-color:#FBD453"/>
		</linearGradient>
		<polygon class="st3" points="1075.04,1523.28 994.19,1540.26 1049.33,1601.79 		"/>
		<linearGradient id="SVGID_4_" gradientUnits="userSpaceOnUse" x1="1490.7961" y1="623.2957" x2="1490.7961" y2="1580.1205">
			<stop  offset="0" style="stop-color:#EB84C9"/>
			<stop  offset="1" style="stop-color:#5C4CE2"/>
		</linearGradient>
		<rect x="1145.17" y="573.46" class="st4" width="691.25" height="951.04"/>
		<rect x="1127.32" y="553.5" class="st5" width="691.25" height="951.04"/>
		<rect x="1343.22" y="700.88" class="st6" width="305.29" height="24.47"/>
		<rect x="1343.22" y="739.88" class="st6" width="163.84" height="24.47"/>
		<rect x="1343.22" y="798.78" class="st6" width="394.95" height="10.7"/>
		<rect x="1343.22" y="824.7" class="st6" width="394.95" height="10.7"/>
		<rect x="1343.22" y="850.93" class="st6" width="394.95" height="10.7"/>
		<rect x="1343.22" y="878.07" class="st6" width="118.46" height="10.7"/>
		<rect x="1433.44" y="983.7" class="st6" width="282.66" height="10.7"/>
		<rect x="1433.44" y="1010.52" class="st6" width="84.78" height="10.7"/>
		<rect x="1433.44" y="1094.07" class="st6" width="282.66" height="10.7"/>
		<rect x="1433.44" y="1120.89" class="st6" width="84.78" height="10.7"/>
		<rect x="1433.44" y="1204.44" class="st6" width="282.66" height="10.7"/>
		<rect x="1433.44" y="1231.26" class="st6" width="84.78" height="10.7"/>
		<rect x="1433.44" y="1314.82" class="st6" width="282.66" height="10.7"/>
		<rect x="1433.44" y="1341.64" class="st6" width="84.78" height="10.7"/>
		<g>
			<linearGradient id="SVGID_5_" gradientUnits="userSpaceOnUse" x1="1239.1593" y1="566.2605" x2="1239.1593" y2="873.3931">
				<stop  offset="0" style="stop-color:#EB84C9"/>
				<stop  offset="1" style="stop-color:#5C4CE2"/>
			</linearGradient>
			<path class="st7" d="M1239.16,811.63L1239.16,811.63c-31.54,0-57.1-25.56-57.1-57.1v0c0-31.53,25.56-57.1,57.1-57.1h0
				c31.54,0,57.1,25.56,57.1,57.1v0C1296.26,786.06,1270.69,811.63,1239.16,811.63z"/>
			<g>
				<circle class="st8" cx="1239.16" cy="737.06" r="15.02"/>
				<path class="st8" d="M1239.16,754.5L1239.16,754.5c-15.64,0-28.32,12.68-28.32,28.32v1.92h56.63v-1.92
					C1267.47,767.18,1254.8,754.5,1239.16,754.5z"/>
			</g>
		</g>
		
			<linearGradient id="SVGID_6_" gradientUnits="userSpaceOnUse" x1="2166.7642" y1="3375.5579" x2="2200.7898" y2="3375.5579" gradientTransform="matrix(0.5079 0.8614 0.8614 -0.5079 -2665.439 459.7499)">
			<stop  offset="0" style="stop-color:#F6A472"/>
			<stop  offset="1" style="stop-color:#FBD453"/>
		</linearGradient>
		<polygon class="st9" points="1337.78,614.7 1344.79,650.06 1371.91,626.31 		"/>
		<g>
			<polygon class="st10" points="1368.55,1033.93 1344.6,1004.3 1352.12,998.23 1368.75,1018.8 1399.15,983.17 1406.5,989.45 			"/>
		</g>
		<g>
			<polygon class="st10" points="1368.55,1144.3 1344.6,1114.68 1352.12,1108.6 1368.75,1129.17 1399.15,1093.55 1406.5,1099.82 			
				"/>
		</g>
		<g>
			<polygon class="st10" points="1368.55,1254.68 1344.6,1225.05 1352.12,1218.97 1368.75,1239.54 1399.15,1203.92 1406.5,1210.2 
							"/>
		</g>
		<g>
			<polygon class="st10" points="1368.55,1365.05 1344.6,1335.43 1352.12,1329.35 1368.75,1349.92 1399.15,1314.3 1406.5,1320.57 
							"/>
		</g>
		<g>
			
				<linearGradient id="SVGID_7_" gradientUnits="userSpaceOnUse" x1="-1721.3909" y1="-11422.6133" x2="-1357.8326" y2="-11422.6133" gradientTransform="matrix(0 -1 1 0 13382.4824 -687.996)">
				<stop  offset="0" style="stop-color:#008DC9"/>
				<stop  offset="0.1648" style="stop-color:#0694CB"/>
				<stop  offset="0.4016" style="stop-color:#17A7D1"/>
				<stop  offset="0.6821" style="stop-color:#32C6DB"/>
				<stop  offset="0.9938" style="stop-color:#57F1E9"/>
				<stop  offset="1" style="stop-color:#58F2E9"/>
			</linearGradient>
			<path class="st11" d="M1868.98,669.84c100.39,0,181.78,81.39,181.78,181.78s-81.39,181.78-181.78,181.78V669.84z"/>
			
				<linearGradient id="SVGID_8_" gradientUnits="userSpaceOnUse" x1="12059.3604" y1="-5654.9106" x2="12103.3076" y2="-5654.9106" gradientTransform="matrix(-0.7071 0.7071 0.7071 0.7071 14566.625 -3537.6538)">
				<stop  offset="0" style="stop-color:#F6A472"/>
				<stop  offset="1" style="stop-color:#FBD453"/>
			</linearGradient>
			<polygon class="st12" points="2036.85,1049.07 2067.93,1018 2013.8,963.87 1982.73,994.94 			"/>
			
				<linearGradient id="SVGID_9_" gradientUnits="userSpaceOnUse" x1="12059.3604" y1="-5677.2202" x2="12103.3076" y2="-5677.2202" gradientTransform="matrix(-0.7071 0.7071 0.7071 0.7071 14566.625 -3537.6538)">
				<stop  offset="0" style="stop-color:#EB84C9"/>
				<stop  offset="1" style="stop-color:#5C4CE2"/>
			</linearGradient>
			<polygon class="st13" points="2004.23,1016.45 2035.31,985.38 2014.87,964.94 1983.8,996.01 			"/>
			
				<linearGradient id="SVGID_10_" gradientUnits="userSpaceOnUse" x1="11900.5518" y1="-5874.9653" x2="12264.1133" y2="-5874.9653" gradientTransform="matrix(-0.7071 0.7071 0.7071 0.7071 14566.625 -3537.6538)">
				<stop  offset="0" style="stop-color:#EB84C9"/>
				<stop  offset="1" style="stop-color:#5C4CE2"/>
			</linearGradient>
			<circle class="st14" cx="1869.02" cy="851.58" r="181.78"/>
			<g>
				
					<linearGradient id="SVGID_11_" gradientUnits="userSpaceOnUse" x1="-4008.939" y1="646.5029" x2="-4429.1318" y2="1030.5713" gradientTransform="matrix(1 0 0 1 6102.3193 0)">
					<stop  offset="0" style="stop-color:#F6A472"/>
					<stop  offset="1" style="stop-color:#FBD453"/>
				</linearGradient>
				<path class="st15" d="M1869.02,1048.34c-52.56,0-101.97-20.47-139.13-57.63h0h0c-37.16-37.16-57.63-86.57-57.63-139.13
					c0-52.56,20.47-101.97,57.63-139.13c37.16-37.16,86.57-57.63,139.13-57.63c52.56,0,101.97,20.47,139.13,57.63
					c37.16,37.16,57.63,86.57,57.63,139.13c0,52.56-20.47,101.97-57.63,139.13C1970.99,1027.87,1921.58,1048.34,1869.02,1048.34z
					 M1869.02,684.78c-44.55,0-86.44,17.35-117.94,48.86c-31.51,31.5-48.86,73.39-48.86,117.94c0,44.55,17.35,86.44,48.85,117.94h0
					c31.5,31.51,73.39,48.86,117.94,48.86c44.55,0,86.44-17.35,117.94-48.86c31.51-31.5,48.86-73.39,48.86-117.94
					c0-44.55-17.35-86.44-48.85-117.94C1955.46,702.13,1913.57,684.78,1869.02,684.78z"/>
			</g>
			
				<linearGradient id="SVGID_12_" gradientUnits="userSpaceOnUse" x1="12047.375" y1="-5514.0103" x2="12115.293" y2="-5514.0103" gradientTransform="matrix(-0.7071 0.7071 0.7071 0.7071 14566.625 -3537.6538)">
				<stop  offset="0" style="stop-color:#F6A472"/>
				<stop  offset="1" style="stop-color:#FBD453"/>
			</linearGradient>
			<path class="st16" d="M2212.71,1193.85L2212.71,1193.85c13.26-13.26,13.26-34.76,0-48.02l-151.49-151.49l-48.02,48.02
				l151.49,151.49C2177.95,1207.11,2199.45,1207.11,2212.71,1193.85z"/>
			
				<linearGradient id="SVGID_13_" gradientUnits="userSpaceOnUse" x1="12047.375" y1="-5630.8853" x2="12115.293" y2="-5630.8853" gradientTransform="matrix(-0.7071 0.7071 0.7071 0.7071 14566.625 -3537.6538)">
				<stop  offset="0" style="stop-color:#EB84C9"/>
				<stop  offset="1" style="stop-color:#5C4CE2"/>
			</linearGradient>
			<polygon class="st17" points="2023.41,1052.58 2071.44,1004.56 2061.22,994.34 2013.19,1042.36 			"/>
		</g>
		
			<linearGradient id="SVGID_14_" gradientUnits="userSpaceOnUse" x1="757.8594" y1="864.6948" x2="790.9934" y2="864.6948" gradientTransform="matrix(0.96 0.28 -0.28 0.96 964.8 383.7333)">
			<stop  offset="0" style="stop-color:#F6A472"/>
			<stop  offset="1" style="stop-color:#FBD453"/>
		</linearGradient>
		<polygon class="st18" points="1477.4,1451.22 1445.59,1441.95 1454.87,1410.14 1486.68,1419.41 		"/>
		
			<linearGradient id="SVGID_15_" gradientUnits="userSpaceOnUse" x1="245.7087" y1="18.6707" x2="293.1461" y2="18.6707" gradientTransform="matrix(0.96 0.28 -0.28 0.96 964.8 383.7333)">
			<stop  offset="0" style="stop-color:#F6A472"/>
			<stop  offset="1" style="stop-color:#FBD453"/>
		</linearGradient>
		<polygon class="st19" points="1234.35,506.51 1188.81,493.23 1202.09,447.69 1247.63,460.97 		"/>
		<linearGradient id="SVGID_16_" gradientUnits="userSpaceOnUse" x1="995.6334" y1="1434.5927" x2="995.6334" y2="953.5606">
			<stop  offset="0" style="stop-color:#F6A472"/>
			<stop  offset="1" style="stop-color:#FBD453"/>
		</linearGradient>
		<path class="st20" d="M997.09,1119.08l-9.79-27.83c-2.41-6.85-8.88-11.43-16.13-11.43H808.45c-10.64,0-19.26,8.62-19.26,19.26
			v249.33c0,10.64,8.62,19.26,19.26,19.26h374.36c10.64,0,19.26-8.62,19.26-19.26v-210.08c0-10.64-8.62-19.26-19.26-19.26H997.09z"
			/>
		<linearGradient id="SVGID_17_" gradientUnits="userSpaceOnUse" x1="892.5002" y1="999.1766" x2="892.5002" y2="758.4562">
			<stop  offset="0" style="stop-color:#F6A472"/>
			<stop  offset="1" style="stop-color:#FBD453"/>
		</linearGradient>
		<path class="st21" d="M893.23,841.29l-4.9-13.92c-1.21-3.43-4.44-5.72-8.07-5.72h-81.42c-5.32,0-9.64,4.32-9.64,9.64v124.77
			c0,5.32,4.32,9.64,9.64,9.64h187.34c5.32,0,9.64-4.32,9.64-9.64V850.93c0-5.32-4.32-9.64-9.64-9.64H893.23z"/>
		<linearGradient id="SVGID_18_" gradientUnits="userSpaceOnUse" x1="892.5002" y1="726.9612" x2="892.5002" y2="486.2408">
			<stop  offset="0" style="stop-color:#F6A472"/>
			<stop  offset="1" style="stop-color:#FBD453"/>
		</linearGradient>
		<path class="st22" d="M893.23,569.07l-4.9-13.92c-1.21-3.43-4.44-5.72-8.07-5.72h-81.42c-5.32,0-9.64,4.32-9.64,9.64v124.77
			c0,5.32,4.32,9.64,9.64,9.64h187.34c5.32,0,9.64-4.32,9.64-9.64V578.71c0-5.32-4.32-9.64-9.64-9.64H893.23z"/>
		<g>
			<path class="st8" d="M831.9,776.21c-1.22,0-2.21-0.99-2.21-2.21v-11.58c0-1.22,0.99-2.21,2.21-2.21s2.21,0.99,2.21,2.21V774
				C834.11,775.22,833.12,776.21,831.9,776.21z M831.9,741.47c-1.22,0-2.21-0.99-2.21-2.21v-11.58c0-1.22,0.99-2.21,2.21-2.21
				s2.21,0.99,2.21,2.21v11.58C834.11,740.49,833.12,741.47,831.9,741.47z"/>
		</g>
		<g>
			<path class="st8" d="M832.6,1044.92c-1.22,0-2.21-0.99-2.21-2.21v-11.58c0-1.22,0.99-2.21,2.21-2.21s2.21,0.99,2.21,2.21v11.58
				C834.81,1043.93,833.82,1044.92,832.6,1044.92z M832.6,1010.18c-1.22,0-2.21-0.99-2.21-2.21V996.4c0-1.22,0.99-2.21,2.21-2.21
				s2.21,0.99,2.21,2.21v11.58C834.81,1009.2,833.82,1010.18,832.6,1010.18z"/>
		</g>
		<g>
			<path class="st8" d="M1937.6,587.28c-1.29,0-2.33-1.04-2.33-2.33v-12.22c0-1.29,1.04-2.33,2.33-2.33s2.33,1.04,2.33,2.33v12.22
				C1939.93,586.24,1938.89,587.28,1937.6,587.28z M1937.6,550.61c-1.29,0-2.33-1.04-2.33-2.33v-12.22c0-1.29,1.04-2.33,2.33-2.33
				s2.33,1.04,2.33,2.33v12.22C1939.93,549.57,1938.89,550.61,1937.6,550.61z M1937.6,513.94c-1.29,0-2.33-1.04-2.33-2.33v-12.22
				c0-1.29,1.04-2.33,2.33-2.33s2.33,1.04,2.33,2.33v12.22C1939.93,512.9,1938.89,513.94,1937.6,513.94z M1937.6,477.27
				c-1.29,0-2.33-1.04-2.33-2.33v-12.22c0-1.29,1.04-2.33,2.33-2.33s2.33,1.04,2.33,2.33v12.22
				C1939.93,476.22,1938.89,477.27,1937.6,477.27z M1924.6,453.6h-12.22c-1.29,0-2.33-1.04-2.33-2.33s1.04-2.33,2.33-2.33h12.22
				c1.29,0,2.33,1.04,2.33,2.33S1925.89,453.6,1924.6,453.6z M1887.93,453.6h-12.23c-1.29,0-2.33-1.04-2.33-2.33
				s1.04-2.33,2.33-2.33h12.23c1.29,0,2.33,1.04,2.33,2.33S1889.22,453.6,1887.93,453.6z M1851.26,453.6h-12.23
				c-1.29,0-2.33-1.04-2.33-2.33s1.04-2.33,2.33-2.33h12.23c1.29,0,2.33,1.04,2.33,2.33S1852.55,453.6,1851.26,453.6z
				 M1814.59,453.6h-12.22c-1.29,0-2.33-1.04-2.33-2.33s1.04-2.33,2.33-2.33h12.22c1.29,0,2.33,1.04,2.33,2.33
				S1815.87,453.6,1814.59,453.6z M1777.91,453.6h-12.22c-1.29,0-2.33-1.04-2.33-2.33s1.04-2.33,2.33-2.33h12.22
				c1.29,0,2.33,1.04,2.33,2.33S1779.2,453.6,1777.91,453.6z M1741.24,453.6h-12.22c-1.29,0-2.33-1.04-2.33-2.33
				s1.04-2.33,2.33-2.33h12.22c1.29,0,2.33,1.04,2.33,2.33S1742.53,453.6,1741.24,453.6z M1704.57,453.6h-12.22
				c-1.29,0-2.33-1.04-2.33-2.33s1.04-2.33,2.33-2.33h12.22c1.29,0,2.33,1.04,2.33,2.33S1705.86,453.6,1704.57,453.6z M1667.9,453.6
				h-12.23c-1.29,0-2.33-1.04-2.33-2.33s1.04-2.33,2.33-2.33h12.23c1.29,0,2.33,1.04,2.33,2.33S1669.19,453.6,1667.9,453.6z
				 M1631.23,453.6H1619c-1.29,0-2.33-1.04-2.33-2.33s1.04-2.33,2.33-2.33h12.23c1.29,0,2.33,1.04,2.33,2.33
				S1632.52,453.6,1631.23,453.6z M1594.56,453.6h-12.22c-1.29,0-2.33-1.04-2.33-2.33s1.04-2.33,2.33-2.33h12.22
				c1.29,0,2.33,1.04,2.33,2.33S1595.84,453.6,1594.56,453.6z M1557.88,453.6h-12.22c-1.29,0-2.33-1.04-2.33-2.33
				s1.04-2.33,2.33-2.33h12.22c1.29,0,2.33,1.04,2.33,2.33S1559.17,453.6,1557.88,453.6z M1521.21,453.6h-12.22
				c-1.29,0-2.33-1.04-2.33-2.33s1.04-2.33,2.33-2.33h12.22c1.29,0,2.33,1.04,2.33,2.33S1522.5,453.6,1521.21,453.6z M1484.54,453.6
				h-12.22c-1.29,0-2.33-1.04-2.33-2.33s1.04-2.33,2.33-2.33h12.22c1.29,0,2.33,1.04,2.33,2.33S1485.83,453.6,1484.54,453.6z
				 M1447.87,453.6h-12.23c-1.29,0-2.33-1.04-2.33-2.33s1.04-2.33,2.33-2.33h12.23c1.29,0,2.33,1.04,2.33,2.33
				S1449.16,453.6,1447.87,453.6z M1411.2,453.6h-12.23c-1.29,0-2.33-1.04-2.33-2.33s1.04-2.33,2.33-2.33h12.23
				c1.29,0,2.33,1.04,2.33,2.33S1412.49,453.6,1411.2,453.6z M1374.53,453.6h-12.22c-1.29,0-2.33-1.04-2.33-2.33
				s1.04-2.33,2.33-2.33h12.22c1.29,0,2.33,1.04,2.33,2.33S1375.81,453.6,1374.53,453.6z"/>
		</g>
		<g>
			<path class="st8" d="M1948.83,1337.27c-1.29,0-2.33-1.04-2.33-2.33v-12.22c0-1.29,1.04-2.33,2.33-2.33
				c1.29,0,2.33,1.04,2.33,2.33v12.22C1951.16,1336.22,1950.12,1337.27,1948.83,1337.27z M1948.83,1300.6
				c-1.29,0-2.33-1.04-2.33-2.33v-12.22c0-1.29,1.04-2.33,2.33-2.33c1.29,0,2.33,1.04,2.33,2.33v12.22
				C1951.16,1299.55,1950.12,1300.6,1948.83,1300.6z M1948.83,1263.92c-1.29,0-2.33-1.04-2.33-2.33v-12.22
				c0-1.29,1.04-2.33,2.33-2.33c1.29,0,2.33,1.04,2.33,2.33v12.22C1951.16,1262.88,1950.12,1263.92,1948.83,1263.92z
				 M1948.83,1227.25c-1.29,0-2.33-1.04-2.33-2.33v-12.22c0-1.29,1.04-2.33,2.33-2.33c1.29,0,2.33,1.04,2.33,2.33v12.22
				C1951.16,1226.21,1950.12,1227.25,1948.83,1227.25z M1948.83,1190.58c-1.29,0-2.33-1.04-2.33-2.33v-12.22
				c0-1.29,1.04-2.33,2.33-2.33c1.29,0,2.33,1.04,2.33,2.33v12.22C1951.16,1189.54,1950.12,1190.58,1948.83,1190.58z
				 M1948.83,1153.91c-1.29,0-2.33-1.04-2.33-2.33v-12.22c0-1.29,1.04-2.33,2.33-2.33c1.29,0,2.33,1.04,2.33,2.33v12.22
				C1951.16,1152.87,1950.12,1153.91,1948.83,1153.91z M1948.83,1117.24c-1.29,0-2.33-1.04-2.33-2.33v-12.22
				c0-1.29,1.04-2.33,2.33-2.33c1.29,0,2.33,1.04,2.33,2.33v12.22C1951.16,1116.19,1950.12,1117.24,1948.83,1117.24z"/>
		</g>
		
			<linearGradient id="SVGID_19_" gradientUnits="userSpaceOnUse" x1="868.2016" y1="-4036.491" x2="908.3046" y2="-4036.491" gradientTransform="matrix(2.0039 -0.4821 -0.123 -0.5112 -466.5464 -40.3766)">
			<stop  offset="0" style="stop-color:#F6A472"/>
			<stop  offset="1" style="stop-color:#FBD453"/>
		</linearGradient>
		<polygon class="st23" points="1847.63,1574.93 1767.27,1594.27 1772.2,1614.77 1852.56,1595.43 		"/>
		
			<rect x="984.57" y="412.89" transform="matrix(0.5236 -0.852 0.852 0.5236 79.1234 1071.7294)" class="st24" width="26.64" height="104.45"/>
		
			<ellipse transform="matrix(0.2276 -0.9738 0.9738 0.2276 -527.2424 2583.9724)" class="st24" cx="1365.11" cy="1624.32" rx="22.45" ry="22.45"/>
		<circle class="st24" cx="2021.79" cy="594.39" r="14.03"/>
		<circle class="st24" cx="1951.63" cy="844.15" r="14.03"/>
		
			<ellipse transform="matrix(0.2276 -0.9738 0.9738 0.2276 -166.6623 1803.7424)" class="st24" cx="1053.6" cy="1006.92" rx="22.45" ry="22.45"/>
		<circle class="st24" cx="2066.69" cy="1248.27" r="25.26"/>
		
			<ellipse transform="matrix(0.9222 -0.3866 0.3866 0.9222 -501.8705 430.8122)" class="st24" cx="819.97" cy="1462.95" rx="16.84" ry="16.84"/>
		
			<ellipse transform="matrix(0.7071 -0.7071 0.7071 0.7071 152.3578 1099.1686)" class="st24" cx="1402.99" cy="365.67" rx="12.63" ry="12.63"/>
		
			<ellipse transform="matrix(0.7071 -0.7071 0.7071 0.7071 -637.5955 1625.1527)" class="st24" cx="1642.94" cy="1582.22" rx="11.23" ry="11.23"/>
	</g>
</g>
</svg>
