<svg version="1.1" id="Layer_1" xmlns="http://www.w3.org/2000/svg" xmlns:xlink="http://www.w3.org/1999/xlink" x="0px" y="0px"
	 width="100%" viewBox="0 0 1606 1604" enable-background="new 0 0 1606 1604" xml:space="preserve">
<path fill="#285ECF" opacity="1.000000" stroke="none" 
	d="
M739.000000,1605.000000 
	C492.666718,1605.000000 246.833420,1605.000000 1.000099,1605.000000 
	C1.000066,1070.333496 1.000066,535.666931 1.000033,1.000314 
	C536.333069,1.000209 1071.666138,1.000209 1606.999512,1.000105 
	C1606.999634,535.666321 1606.999634,1070.332642 1606.999756,1604.999512 
	C1317.833374,1605.000000 1028.666626,1605.000000 739.000000,1605.000000 
M842.963867,681.326965 
	C831.038086,702.020630 819.112366,722.714294 807.186646,743.407959 
	C806.029297,737.527344 806.266174,731.943115 805.958008,726.389038 
	C805.687561,721.514771 807.039246,717.420654 809.499268,713.229492 
	C822.737976,690.674072 835.477600,667.822205 848.940796,645.403748 
	C854.333923,636.423218 849.816772,627.992065 850.536560,619.329895 
	C850.080688,619.255310 849.624817,619.180786 849.168945,619.106201 
	C835.180664,643.290527 821.192322,667.474792 807.204041,691.659058 
	C806.029297,685.864197 806.251526,680.554016 805.965210,675.271423 
	C805.693237,670.254272 806.978821,665.970459 809.540894,661.617981 
	C820.864197,642.381653 831.176697,622.506958 843.315308,603.811340 
	C849.939148,593.609497 846.801086,584.032410 845.553894,573.700500 
	C832.785278,595.810303 820.016602,617.920105 807.247986,640.029846 
	C806.841736,639.846924 806.435547,639.663940 806.029297,639.480957 
	C806.029297,634.174011 806.272705,628.852661 805.957886,623.564514 
	C805.667908,618.694885 806.965576,614.574707 809.430725,610.384155 
	C819.819580,592.723816 829.941956,574.906738 840.153503,557.142090 
	C844.600769,549.405457 845.374512,537.797546 841.898010,528.557556 
	C830.235962,548.773804 818.712769,568.749329 807.189575,588.724915 
	C806.035461,581.157288 805.950073,574.161682 806.100952,567.171204 
	C806.134827,565.603027 806.727600,563.900208 807.515869,562.517395 
	C817.247498,545.445496 827.017700,528.395142 836.879333,511.398041 
	C840.890381,504.484802 841.639709,491.887360 838.054993,483.745972 
	C827.716980,501.664246 817.502991,519.367554 807.288940,537.070862 
	C806.869080,536.910461 806.449158,536.750061 806.029297,536.589661 
	C806.029297,530.810120 805.690002,525.003235 806.152344,519.260925 
	C806.445251,515.623962 807.255554,511.708038 808.998779,508.562836 
	C817.477051,493.265198 826.373169,478.199554 835.045898,463.008667 
	C836.010559,461.319031 836.495728,459.355682 837.287598,457.300323 
	C824.552368,455.671478 824.551270,455.670868 818.939392,465.318787 
	C817.431702,467.910828 815.935303,470.509369 814.428833,473.102112 
	C812.071899,477.158661 809.710815,481.212769 806.999756,485.872437 
	C806.999756,475.740417 806.999756,466.666992 806.999756,457.182739 
	C797.105896,457.182739 786.271057,457.182739 775.353943,457.182739 
	C775.203003,458.198120 775.069275,458.843445 775.015564,459.495392 
	C771.592285,500.998505 768.210510,542.505066 764.749084,584.004944 
	C760.913696,629.988037 756.966248,675.961792 753.141174,721.945679 
	C749.316162,767.930237 745.623291,813.925781 741.796692,859.910217 
	C737.652161,909.715027 733.385376,959.509705 729.343567,1009.322754 
	C729.167725,1011.490051 730.134460,1014.267334 731.533142,1015.967224 
	C751.012817,1039.641235 770.659546,1063.177979 790.268799,1086.745483 
	C795.201660,1092.673950 800.146118,1098.592773 806.029297,1105.648193 
	C806.029297,1098.643555 806.283203,1093.185059 805.956482,1087.761475 
	C805.642761,1082.554443 807.066284,1078.166748 809.681885,1073.661499 
	C831.760376,1035.632202 853.645874,997.490967 875.545593,959.358276 
	C876.600586,957.521240 877.986511,955.432312 877.944519,953.488098 
	C877.806213,947.076355 877.082214,940.677307 876.583191,934.273376 
	C876.217102,934.162842 875.851013,934.052246 875.484924,933.941711 
	C852.696167,973.464661 829.907410,1012.987671 807.118652,1052.510620 
	C806.029297,1047.157471 806.314758,1042.309082 805.958374,1037.508545 
	C805.494202,1031.256836 807.356079,1026.005615 810.504761,1020.613342 
	C830.158936,986.954285 849.062073,952.847046 869.240906,919.509949 
	C875.498535,909.171753 873.552979,899.572632 871.690308,889.040100 
	C850.201233,926.259033 828.712219,963.478027 807.223145,1000.696960 
	C806.029297,995.144653 806.304382,989.887939 805.953247,984.673279 
	C805.589539,979.271851 807.175903,974.757690 809.871948,970.119751 
	C829.544983,936.277527 849.012451,902.315796 868.496155,868.363831 
	C869.463501,866.678162 870.652100,864.706360 870.582031,862.913025 
	C870.336060,856.619568 869.584229,850.345947 869.024475,844.064819 
	C868.688843,843.957458 868.353271,843.850098 868.017700,843.742737 
	C847.775757,878.847961 827.533813,913.953186 807.291870,949.058472 
	C806.870972,948.895447 806.450134,948.732483 806.029297,948.569519 
	C806.029297,943.451111 806.306702,938.313538 805.953491,933.219604 
	C805.578735,927.815552 807.162598,923.290161 809.861633,918.655762 
	C827.382019,888.571960 844.175903,858.050415 862.329529,828.358093 
	C868.485168,818.289673 865.476013,809.050171 864.180054,798.916199 
	C845.186218,831.862549 826.192383,864.808899 807.198547,897.755310 
	C806.029297,891.965454 806.251892,886.654663 805.964905,881.371521 
	C805.692444,876.354492 807.009644,872.089966 809.552307,867.728699 
	C825.828369,839.811707 841.272644,811.388184 858.284424,783.932922 
	C864.681396,773.608948 861.689575,764.146301 860.498657,753.831787 
	C842.775269,784.583740 825.051880,815.335632 807.328491,846.087585 
	C806.895447,845.985352 806.462341,845.883118 806.029297,845.780884 
	C806.029297,840.389465 806.262634,834.984985 805.960327,829.610657 
	C805.686768,824.747437 807.004883,820.644043 809.453186,816.442078 
	C825.469482,788.953918 841.279846,761.345764 857.112000,733.750610 
	C858.084900,732.054993 859.368530,730.113281 859.309143,728.325928 
	C859.096069,721.919739 858.367310,715.530640 857.833557,709.135071 
	C857.483459,709.032837 857.133423,708.930603 856.783325,708.828369 
	C840.259094,737.472778 823.734863,766.117188 807.210632,794.761597 
	C806.030396,787.761719 805.860352,781.156067 806.120789,774.567444 
	C806.214478,772.198181 806.897278,769.614685 808.069092,767.561646 
	C822.106323,742.967102 835.685547,718.077637 850.711426,694.096619 
	C857.125732,683.859497 854.610474,674.335571 852.990906,663.929932 
	C849.767822,669.515381 846.544739,675.100830 842.963867,681.326965 
M825.224854,1183.231079 
	C810.601562,1175.500732 796.245972,1175.886230 782.972717,1185.869629 
	C770.052979,1195.587158 765.356628,1209.081055 768.544861,1224.814209 
	C772.075256,1242.235474 786.933533,1254.473145 804.198975,1255.047607 
	C821.972778,1255.638916 837.851440,1244.443359 842.902222,1227.759155 
	C847.985229,1210.968506 841.023804,1192.949829 825.224854,1183.231079 
M827.695007,424.312744 
	C836.100220,409.698761 844.505432,395.084808 853.403687,379.613647 
	C849.897339,379.613647 847.408813,379.850586 844.982605,379.562317 
	C840.499756,379.029663 837.858032,380.612518 835.577942,384.743683 
	C827.216370,399.893341 818.391479,414.787445 809.719238,429.765198 
	C808.890625,431.196320 807.911743,432.540405 807.002563,433.924896 
	C806.029236,428.664978 806.320679,423.853027 805.956116,419.091278 
	C805.490601,413.010742 807.089478,407.792603 810.356934,402.669067 
	C814.953125,395.461914 818.993835,387.900482 823.581421,379.954834 
	C791.885742,379.954834 761.042175,379.954834 730.130188,379.954834 
	C730.237732,380.605774 730.187927,380.988586 730.353699,381.210327 
	C744.802612,400.544830 759.223877,419.900604 773.833679,439.112976 
	C774.796143,440.378662 777.189636,441.067444 778.947632,441.126404 
	C785.765930,441.355042 792.597107,441.284546 799.421997,441.201721 
	C805.557556,441.127289 812.854370,442.880890 817.498657,440.166321 
	C822.148254,437.448639 824.147156,430.195984 827.695007,424.312744 
M881.543457,993.231750 
	C881.097046,988.564331 880.650574,983.896912 880.068787,977.814514 
	C878.365295,980.534241 877.457520,981.884949 876.647278,983.291809 
	C858.627075,1014.578308 840.621948,1045.873413 822.599121,1077.158447 
	C820.786926,1080.304199 818.765686,1083.335449 817.082458,1086.546143 
	C816.537598,1087.585327 816.764099,1089.028809 816.703308,1089.634399 
	C818.706970,1087.231201 821.359863,1084.421631 823.593994,1081.311279 
	C842.041504,1055.628784 860.363525,1029.855957 878.865356,1004.212769 
	C881.160339,1001.032043 882.445190,997.935608 881.543457,993.231750 
M838.996765,438.472473 
	C853.459351,419.161438 867.921936,399.850433 883.103943,379.578796 
	C879.450562,379.578796 877.118835,379.841858 874.869019,379.524261 
	C870.123291,378.854309 867.456482,380.688599 865.086304,384.957031 
	C855.567444,402.099731 845.599182,418.992767 835.812622,435.987030 
	C834.963074,437.462372 834.227417,439.003326 833.438843,440.513824 
	C833.810791,440.878448 834.182739,441.243103 834.554749,441.607727 
	C835.900635,440.746765 837.246582,439.885803 838.996765,438.472473 
z"/>
<path fill="#FCFDFE" opacity="1.000000" stroke="none" 
	d="
M843.142822,681.006592 
	C846.544739,675.100830 849.767822,669.515381 852.990906,663.929932 
	C854.610474,674.335571 857.125732,683.859497 850.711426,694.096619 
	C835.685547,718.077637 822.106323,742.967102 808.069092,767.561646 
	C806.897278,769.614685 806.214478,772.198181 806.120789,774.567444 
	C805.860352,781.156067 806.030396,787.761719 807.210632,794.761597 
	C823.734863,766.117188 840.259094,737.472778 856.783325,708.828369 
	C857.133423,708.930603 857.483459,709.032837 857.833557,709.135071 
	C858.367310,715.530640 859.096069,721.919739 859.309143,728.325928 
	C859.368530,730.113281 858.084900,732.054993 857.112000,733.750610 
	C841.279846,761.345764 825.469482,788.953918 809.453186,816.442078 
	C807.004883,820.644043 805.686768,824.747437 805.960327,829.610657 
	C806.262634,834.984985 806.029297,840.389465 806.029297,845.780884 
	C806.462341,845.883118 806.895447,845.985352 807.328491,846.087585 
	C825.051880,815.335632 842.775269,784.583740 860.498657,753.831787 
	C861.689575,764.146301 864.681396,773.608948 858.284424,783.932922 
	C841.272644,811.388184 825.828369,839.811707 809.552307,867.728699 
	C807.009644,872.089966 805.692444,876.354492 805.964905,881.371521 
	C806.251892,886.654663 806.029297,891.965454 807.198547,897.755310 
	C826.192383,864.808899 845.186218,831.862549 864.180054,798.916199 
	C865.476013,809.050171 868.485168,818.289673 862.329529,828.358093 
	C844.175903,858.050415 827.382019,888.571960 809.861633,918.655762 
	C807.162598,923.290161 805.578735,927.815552 805.953491,933.219604 
	C806.306702,938.313538 806.029297,943.451111 806.029297,948.569519 
	C806.450134,948.732483 806.870972,948.895447 807.291870,949.058472 
	C827.533813,913.953186 847.775757,878.847961 868.017700,843.742737 
	C868.353271,843.850098 868.688843,843.957458 869.024475,844.064819 
	C869.584229,850.345947 870.336060,856.619568 870.582031,862.913025 
	C870.652100,864.706360 869.463501,866.678162 868.496155,868.363831 
	C849.012451,902.315796 829.544983,936.277527 809.871948,970.119751 
	C807.175903,974.757690 805.589539,979.271851 805.953247,984.673279 
	C806.304382,989.887939 806.029297,995.144653 807.223145,1000.696960 
	C828.712219,963.478027 850.201233,926.259033 871.690308,889.040100 
	C873.552979,899.572632 875.498535,909.171753 869.240906,919.509949 
	C849.062073,952.847046 830.158936,986.954285 810.504761,1020.613342 
	C807.356079,1026.005615 805.494202,1031.256836 805.958374,1037.508545 
	C806.314758,1042.309082 806.029297,1047.157471 807.118652,1052.510620 
	C829.907410,1012.987671 852.696167,973.464661 875.484924,933.941711 
	C875.851013,934.052246 876.217102,934.162842 876.583191,934.273376 
	C877.082214,940.677307 877.806213,947.076355 877.944519,953.488098 
	C877.986511,955.432312 876.600586,957.521240 875.545593,959.358276 
	C853.645874,997.490967 831.760376,1035.632202 809.681885,1073.661499 
	C807.066284,1078.166748 805.642761,1082.554443 805.956482,1087.761475 
	C806.283203,1093.185059 806.029297,1098.643555 806.029297,1105.648193 
	C800.146118,1098.592773 795.201660,1092.673950 790.268799,1086.745483 
	C770.659546,1063.177979 751.012817,1039.641235 731.533142,1015.967224 
	C730.134460,1014.267334 729.167725,1011.490051 729.343567,1009.322754 
	C733.385376,959.509705 737.652161,909.715027 741.796692,859.910217 
	C745.623291,813.925781 749.316162,767.930237 753.141174,721.945679 
	C756.966248,675.961792 760.913696,629.988037 764.749084,584.004944 
	C768.210510,542.505066 771.592285,500.998505 775.015564,459.495392 
	C775.069275,458.843445 775.203003,458.198120 775.353943,457.182739 
	C786.271057,457.182739 797.105896,457.182739 806.999756,457.182739 
	C806.999756,466.666992 806.999756,475.740417 806.999756,485.872437 
	C809.710815,481.212769 812.071899,477.158661 814.428833,473.102112 
	C815.935303,470.509369 817.431702,467.910828 818.939392,465.318787 
	C824.551270,455.670868 824.552368,455.671478 837.287598,457.300323 
	C836.495728,459.355682 836.010559,461.319031 835.045898,463.008667 
	C826.373169,478.199554 817.477051,493.265198 808.998779,508.562836 
	C807.255554,511.708038 806.445251,515.623962 806.152344,519.260925 
	C805.690002,525.003235 806.029297,530.810120 806.029297,536.589661 
	C806.449158,536.750061 806.869080,536.910461 807.288940,537.070862 
	C817.502991,519.367554 827.716980,501.664246 838.054993,483.745972 
	C841.639709,491.887360 840.890381,504.484802 836.879333,511.398041 
	C827.017700,528.395142 817.247498,545.445496 807.515869,562.517395 
	C806.727600,563.900208 806.134827,565.603027 806.100952,567.171204 
	C805.950073,574.161682 806.035461,581.157288 807.189575,588.724915 
	C818.712769,568.749329 830.235962,548.773804 841.898010,528.557556 
	C845.374512,537.797546 844.600769,549.405457 840.153503,557.142090 
	C829.941956,574.906738 819.819580,592.723816 809.430725,610.384155 
	C806.965576,614.574707 805.667908,618.694885 805.957886,623.564514 
	C806.272705,628.852661 806.029297,634.174011 806.029297,639.480957 
	C806.435547,639.663940 806.841736,639.846924 807.247986,640.029846 
	C820.016602,617.920105 832.785278,595.810303 845.553894,573.700500 
	C846.801086,584.032410 849.939148,593.609497 843.315308,603.811340 
	C831.176697,622.506958 820.864197,642.381653 809.540894,661.617981 
	C806.978821,665.970459 805.693237,670.254272 805.965210,675.271423 
	C806.251526,680.554016 806.029297,685.864197 807.204041,691.659058 
	C821.192322,667.474792 835.180664,643.290527 849.168945,619.106201 
	C849.624817,619.180786 850.080688,619.255310 850.536560,619.329895 
	C849.816772,627.992065 854.333923,636.423218 848.940796,645.403748 
	C835.477600,667.822205 822.737976,690.674072 809.499268,713.229492 
	C807.039246,717.420654 805.687561,721.514771 805.958008,726.389038 
	C806.266174,731.943115 806.029297,737.527344 807.186646,743.407959 
	C819.112366,722.714294 831.038086,702.020630 843.142822,681.006592 
z"/>
<path fill="#FDFEFF" opacity="1.000000" stroke="none" 
	d="
M825.536804,1183.424805 
	C841.023804,1192.949829 847.985229,1210.968506 842.902222,1227.759155 
	C837.851440,1244.443359 821.972778,1255.638916 804.198975,1255.047607 
	C786.933533,1254.473145 772.075256,1242.235474 768.544861,1224.814209 
	C765.356628,1209.081055 770.052979,1195.587158 782.972717,1185.869629 
	C796.245972,1175.886230 810.601562,1175.500732 825.536804,1183.424805 
z"/>
<path fill="#FCFDFE" opacity="1.000000" stroke="none" 
	d="
M827.501465,424.621948 
	C824.147156,430.195984 822.148254,437.448639 817.498657,440.166321 
	C812.854370,442.880890 805.557556,441.127289 799.421997,441.201721 
	C792.597107,441.284546 785.765930,441.355042 778.947632,441.126404 
	C777.189636,441.067444 774.796143,440.378662 773.833679,439.112976 
	C759.223877,419.900604 744.802612,400.544830 730.353699,381.210327 
	C730.187927,380.988586 730.237732,380.605774 730.130188,379.954834 
	C761.042175,379.954834 791.885742,379.954834 823.581421,379.954834 
	C818.993835,387.900482 814.953125,395.461914 810.356934,402.669067 
	C807.089478,407.792603 805.490601,413.010742 805.956116,419.091278 
	C806.320679,423.853027 806.029236,428.664978 807.002563,433.924896 
	C807.911743,432.540405 808.890625,431.196320 809.719238,429.765198 
	C818.391479,414.787445 827.216370,399.893341 835.577942,384.743683 
	C837.858032,380.612518 840.499756,379.029663 844.982605,379.562317 
	C847.408813,379.850586 849.897339,379.613647 853.403687,379.613647 
	C844.505432,395.084808 836.100220,409.698761 827.501465,424.621948 
z"/>
<path fill="#F3F7FC" opacity="1.000000" stroke="none" 
	d="
M881.584290,993.656250 
	C882.445190,997.935608 881.160339,1001.032043 878.865356,1004.212769 
	C860.363525,1029.855957 842.041504,1055.628784 823.593994,1081.311279 
	C821.359863,1084.421631 818.706970,1087.231201 816.703308,1089.634399 
	C816.764099,1089.028809 816.537598,1087.585327 817.082458,1086.546143 
	C818.765686,1083.335449 820.786926,1080.304199 822.599121,1077.158447 
	C840.621948,1045.873413 858.627075,1014.578308 876.647278,983.291809 
	C877.457520,981.884949 878.365295,980.534241 880.068787,977.814514 
	C880.650574,983.896912 881.097046,988.564331 881.584290,993.656250 
z"/>
<path fill="#F3F7FC" opacity="1.000000" stroke="none" 
	d="
M838.794617,438.748657 
	C837.246582,439.885803 835.900635,440.746765 834.554749,441.607727 
	C834.182739,441.243103 833.810791,440.878448 833.438843,440.513824 
	C834.227417,439.003326 834.963074,437.462372 835.812622,435.987030 
	C845.599182,418.992767 855.567444,402.099731 865.086304,384.957031 
	C867.456482,380.688599 870.123291,378.854309 874.869019,379.524261 
	C877.118835,379.841858 879.450562,379.578796 883.103943,379.578796 
	C867.921936,399.850433 853.459351,419.161438 838.794617,438.748657 
z"/>
</svg>